<svg width="18" height="19" viewBox="0 0 18 19" fill="none" xmlns="http://www.w3.org/2000/svg">
<path d="M8.86265 1.80859C4.94723 1.80859 1.77271 5.04661 1.77271 9.04034C1.77271 12.429 4.06039 15.2645 7.14452 16.0491C7.11143 15.9515 7.09016 15.8382 7.09016 15.6978V14.4617C6.80243 14.4617 6.32031 14.4617 6.19919 14.4617C5.71412 14.4617 5.28282 14.249 5.07367 13.8537C4.84147 13.4143 4.80129 12.7424 4.22583 12.3314C4.05508 12.1946 4.18506 12.0385 4.38181 12.0596C4.74516 12.1645 5.04649 12.4188 5.33009 12.796C5.6125 13.1739 5.74544 13.2595 6.27305 13.2595C6.52888 13.2595 6.91173 13.2444 7.27214 13.1865C7.46593 12.6845 7.80093 12.2223 8.21038 12.0041C5.84942 11.7565 4.72271 10.5584 4.72271 8.93186C4.72271 8.23159 5.01517 7.55421 5.51206 6.98351C5.34899 6.41702 5.14397 5.26175 5.57469 4.82182C6.637 4.82182 7.27923 5.5245 7.43344 5.71434C7.96282 5.52933 8.54419 5.42447 9.15511 5.42447C9.76721 5.42447 10.3509 5.52933 10.8815 5.71554C11.0339 5.52692 11.6768 4.82182 12.7414 4.82182C13.1739 5.26235 12.9665 6.42245 12.8017 6.98773C13.2956 7.55723 13.5863 8.23279 13.5863 8.93186C13.5863 10.5572 12.4614 11.7547 10.104 12.0035C10.7527 12.3489 11.226 13.3191 11.226 14.0501V15.6978C11.226 15.7604 11.2124 15.8056 11.2053 15.8593C13.968 14.8715 15.9526 12.1958 15.9526 9.04034C15.9526 5.04661 12.7781 1.80859 8.86265 1.80859Z" fill="#212121"/>
</svg>
