<svg width="19" height="19" viewBox="0 0 19 19" fill="none" xmlns="http://www.w3.org/2000/svg">
<path d="M6.02545 1.80762C3.69984 1.80762 1.80811 3.7011 1.80811 6.02731V12.0538C1.80811 14.3794 3.70159 16.2711 6.0278 16.2711H12.0543C14.3799 16.2711 16.2716 14.3776 16.2716 12.0514V6.02496C16.2716 3.69935 14.3781 1.80762 12.0519 1.80762H6.02545ZM13.2584 4.2182C13.591 4.2182 13.861 4.48818 13.861 4.82084C13.861 5.1535 13.591 5.42349 13.2584 5.42349C12.9257 5.42349 12.6557 5.1535 12.6557 4.82084C12.6557 4.48818 12.9257 4.2182 13.2584 4.2182ZM9.03985 5.42349C11.034 5.42349 12.6557 7.04521 12.6557 9.03936C12.6557 11.0335 11.034 12.6552 9.03985 12.6552C7.0457 12.6552 5.42398 11.0335 5.42398 9.03936C5.42398 7.04521 7.0457 5.42349 9.03985 5.42349ZM9.03985 6.62878C7.70852 6.62878 6.62927 7.70803 6.62927 9.03936C6.62927 10.3707 7.70852 11.4499 9.03985 11.4499C10.3712 11.4499 11.4504 10.3707 11.4504 9.03936C11.4504 7.70803 10.3712 6.62878 9.03985 6.62878Z" fill="white"/>
</svg>
