<svg width="18" height="19" viewBox="0 0 18 19" fill="none" xmlns="http://www.w3.org/2000/svg">
<path d="M14.1796 2.41064H3.54469C2.89183 2.41064 2.36304 2.95001 2.36304 3.61594V14.4636C2.36304 15.1295 2.89183 15.6688 3.54469 15.6688H14.1796C14.8325 15.6688 15.3613 15.1295 15.3613 14.4636V3.61594C15.3613 2.95001 14.8325 2.41064 14.1796 2.41064ZM6.47166 13.2583H4.72872V7.53795H6.47166V13.2583ZM5.58246 6.72016C5.02058 6.72016 4.56624 6.25552 4.56624 5.68361C4.56624 5.1117 5.02118 4.64766 5.58246 4.64766C6.14257 4.64766 6.5981 5.1123 6.5981 5.68361C6.5981 6.25552 6.14257 6.72016 5.58246 6.72016ZM13.0003 13.2583H11.2586V10.4764C11.2586 9.81294 11.2467 8.95959 10.3528 8.95959C9.44589 8.95959 9.30646 9.68216 9.30646 10.4282V13.2583H7.56469V7.53795H9.23674V8.31958H9.26037C9.49316 7.87001 10.0615 7.39573 10.9094 7.39573C12.6742 7.39573 13.0003 8.58053 13.0003 10.1209V13.2583Z" fill="#212121"/>
</svg>
