<svg width="18" height="19" viewBox="0 0 18 19" fill="none" xmlns="http://www.w3.org/2000/svg">
<path d="M8.86265 1.80811C4.94723 1.80811 1.77271 5.04612 1.77271 9.03985C1.77271 10.3965 2.14631 11.6614 2.78358 12.7464L1.83617 16.2716L5.36614 15.3264C6.39851 15.9251 7.5903 16.2716 8.86265 16.2716C12.7781 16.2716 15.9526 13.0336 15.9526 9.03985C15.9526 5.04612 12.7781 1.80811 8.86265 1.80811ZM6.43587 5.66645C6.55108 5.66645 6.66946 5.66573 6.77167 5.67115C6.89811 5.67417 7.03573 5.68361 7.16748 5.98071C7.32405 6.33386 7.66497 7.2198 7.70869 7.30959C7.75241 7.39939 7.7834 7.50517 7.72254 7.62269C7.66464 7.74322 7.63452 7.81617 7.54945 7.92283C7.46141 8.02649 7.36495 8.15523 7.28519 8.23358C7.19715 8.32337 7.10625 8.42183 7.20787 8.60082C7.30949 8.7798 7.66242 9.36656 8.18412 9.84024C8.85471 10.4513 9.42051 10.6391 9.59657 10.7289C9.77264 10.8187 9.8746 10.8047 9.97623 10.6842C10.0808 10.5667 10.4154 10.1634 10.5336 9.98384C10.6488 9.80425 10.7664 9.83532 10.9259 9.89438C11.0878 9.95344 11.9511 10.3872 12.1272 10.477C12.3033 10.5668 12.4187 10.6113 12.463 10.6842C12.5085 10.7595 12.5086 11.1181 12.3626 11.5364C12.2167 11.954 11.5001 12.3579 11.1787 12.3862C10.8543 12.4169 10.5516 12.5349 9.07036 11.9401C7.2837 11.2223 6.15694 9.35577 6.0689 9.23525C5.98087 9.11773 5.35345 8.2648 5.35345 7.38494C5.35345 6.50206 5.80727 6.06968 5.9662 5.89009C6.12809 5.71051 6.3177 5.66646 6.43586 5.66646L6.43587 5.66645Z" fill="#212121"/>
</svg>
